<?xml version="1.0" standalone="no"?><!DOCTYPE svg PUBLIC "-//W3C//DTD SVG 1.1//EN" "http://www.w3.org/Graphics/SVG/1.1/DTD/svg11.dtd"><svg t="1625292151039" class="icon" viewBox="0 0 1024 1024" version="1.1" xmlns="http://www.w3.org/2000/svg" p-id="2240" xmlns:xlink="http://www.w3.org/1999/xlink" width="200" height="200"><defs><style type="text/css"></style></defs><path d="M925.814 698.592c-13.272-7.674-28.82-7.854-41.752-1.858l-49.746-28.72 43.67-13.97c13.73-4.398 21.286-19.066 16.888-32.798-4.398-13.71-19.066-21.266-32.798-16.888l-88.778 28.44-53.304-30.778 43.67-13.99c13.71-4.398 21.266-19.066 16.888-32.778-4.396-13.73-19.086-21.286-32.798-16.888l-88.778 28.42-13.77-7.954a138.346 138.346 0 0 0 5.296-37.874 137.762 137.762 0 0 0-10.432-52.724l18.946-10.932 88.08 28.2c12.292 3.918 26.042-1.18 31.858-12.692 7.434-14.73-0.2-31.938-15.25-36.774l-43.67-13.97 53.304-30.778 88.08 28.2c12.292 3.938 26.042-1.18 31.858-12.692 7.454-14.73-0.18-31.938-15.25-36.754l-43.65-13.99 49.726-28.7c12.932 5.976 28.48 5.816 41.752-1.858 21.704-12.532 29.14-40.272 16.608-61.958s-40.252-29.12-61.958-16.608c-13.272 7.674-21.206 21.046-22.484 35.256l-49.726 28.7 9.714-44.79c3.058-14.09-5.876-27.98-19.946-31.018-14.07-3.058-27.962 5.876-31.018 19.946l-19.766 91.098-53.324 30.778 9.734-44.81c3.058-14.07-5.876-27.96-19.946-31.018-14.09-3.058-27.98 5.876-31.018 19.966l-19.786 91.098-21.546 12.432c-19.426-20.006-44.83-34.176-73.33-39.612v-27.602l68.992-62.676c10.672-9.694 11.472-26.182 1.778-36.834-9.674-10.672-26.182-11.472-36.834-1.778l-33.936 30.818v-61.558l68.992-62.676c10.672-9.674 11.472-26.162 1.778-36.834-9.674-10.652-26.182-11.452-36.834-1.758l-33.936 30.818v-57.42c11.652-8.214 19.266-21.764 19.266-37.094 0-25.062-20.306-45.368-45.348-45.368s-45.348 20.306-45.348 45.368c0 15.33 7.614 28.88 19.266 37.094v57.42L451.96 124.046c-11.712-10.632-30.44-8.634-39.472 5.176-7.056 10.792-4.596 25.242 4.956 33.916l68.452 62.178v61.558l-33.936-30.818c-11.712-10.632-30.44-8.634-39.472 5.176-7.056 10.792-4.596 25.262 4.956 33.936l68.452 62.178v27.622c-28.48 5.436-53.842 19.606-73.25 39.592l-21.546-12.432-19.786-91.098c-3.038-14.09-16.928-23.024-31.018-19.966-14.07 3.058-23.004 16.948-19.946 31.018l9.734 44.81-53.324-30.778-19.766-91.098c-3.058-14.07-16.948-23.004-31.018-19.946-14.07 3.038-23.004 16.928-19.946 31.018l9.714 44.79-49.726-28.7c-1.278-14.21-9.214-27.582-22.484-35.256-21.706-12.512-49.426-5.076-61.958 16.608-12.532 21.686-5.096 49.426 16.608 61.958 13.272 7.674 28.82 7.834 41.752 1.858l49.726 28.7-43.65 13.99c-15.07 4.816-22.704 22.024-15.25 36.754 5.816 11.512 19.566 16.628 31.858 12.692l88.08-28.2 53.304 30.778-43.67 13.97c-15.05 4.836-22.684 22.044-15.25 36.774 5.816 11.512 19.566 16.608 31.858 12.692l88.08-28.2 18.946 10.932a137.718 137.718 0 0 0-10.432 52.724c0 13.152 1.878 25.842 5.296 37.874l-13.77 7.954-88.778-28.42c-13.71-4.396-28.4 3.158-32.798 16.888-4.378 13.71 3.178 28.38 16.888 32.778l43.67 13.99-53.304 30.778-88.778-28.44c-13.73-4.378-28.4 3.178-32.798 16.888-4.396 13.73 3.158 28.4 16.888 32.798l43.67 13.97-49.746 28.72c-12.932-5.996-28.48-5.816-41.752 1.858-21.706 12.512-29.14 40.252-16.608 61.958 12.532 21.686 40.272 29.12 61.958 16.588 13.27-7.654 21.206-21.046 22.484-35.236l49.726-28.72-9.714 44.81c-3.358 15.45 7.734 30.678 24.204 31.598 12.892 0.72 24.184-8.654 26.922-21.246l19.626-90.378 53.304-30.778-9.734 44.79c-3.358 15.45 7.734 30.678 24.224 31.598 12.872 0.72 24.164-8.634 26.902-21.246l19.626-90.378 11.212-6.476c20.266 26.242 49.706 45.01 83.542 51.464v9.714l-68.452 62.178c-9.554 8.674-12.012 23.144-4.956 33.936 9.034 13.81 27.762 15.81 39.472 5.176l33.936-30.818v61.558l-68.452 62.178c-9.554 8.674-12.012 23.124-4.956 33.916 9.034 13.81 27.762 15.808 39.472 5.176l33.936-30.818v57.42c-11.652 8.214-19.266 21.766-19.266 37.094 0 25.062 20.306 45.368 45.348 45.368s45.348-20.306 45.348-45.368c0-15.33-7.614-28.88-19.266-37.094v-57.42l33.936 30.818c10.652 9.694 27.162 8.894 36.834-1.758 9.694-10.672 8.894-27.162-1.778-36.834l-68.992-62.678v-61.558l33.936 30.818c10.652 9.674 27.162 8.894 36.834-1.778 9.694-10.652 8.894-27.142-1.778-36.834l-68.992-62.676v-9.694c33.856-6.456 63.336-25.222 83.622-51.484l11.212 6.476 19.626 90.378c2.738 12.612 14.03 21.964 26.902 21.246 16.488-0.92 27.582-16.148 24.224-31.598l-9.734-44.79 53.304 30.778 19.626 90.378c2.738 12.592 14.03 21.964 26.922 21.246 16.468-0.92 27.562-16.148 24.204-31.598l-9.714-44.81 49.726 28.72c1.278 14.19 9.214 27.58 22.484 35.236 21.684 12.532 49.426 5.096 61.958-16.588 12.53-21.704 5.096-49.446-16.61-61.956zM512.02 587.628c-36.834 0-66.674-29.84-66.674-66.674 0-36.814 29.84-66.674 66.674-66.674s66.674 29.86 66.674 66.674c0 36.834-29.84 66.674-66.674 66.674z" fill="#D8ECFE" p-id="2241"></path><path d="M942.464 263.53c-11.332-19.626-35.136-27.58-55.642-19.626a45.204 45.204 0 0 1 22.944 19.626c12.532 21.686 5.096 49.426-16.608 61.958a45.192 45.192 0 0 1-6.296 3.018c12.352 4.756 26.662 4.118 38.994-3.018 21.704-12.532 29.138-40.272 16.608-61.958z m-16.65 435.062c-12.352-7.136-26.662-7.794-39.014-3.018 2.138 0.82 4.256 1.838 6.316 3.018 21.706 12.512 29.14 40.252 16.608 61.958a45.24 45.24 0 0 1-22.924 19.626c20.506 7.954 44.29 0 55.622-19.626 12.532-21.706 5.098-49.448-16.608-61.958z m-47.786-328.554l-43.65-13.99 49.726-28.7c-8.292-0.328-15.844-0.294-23.188-2.976a6.24 6.24 0 0 0-5.266 0.448l-41.782 24.176c-4.686 2.712-3.936 9.696 1.222 11.348l30.242 9.694c15.07 4.816 22.704 22.024 15.25 36.754a24.816 24.816 0 0 1-8.674 9.634l9.514 3.058c12.292 3.938 26.042-1.18 31.858-12.692 7.452-14.73-0.182-31.938-15.252-36.754z m-60.06 387.952l-9.722-44.802-22.364-15.142c-4.712-3.19-10.886 1.072-9.574 6.61l6.426 27.126c2.046 8.636 3.178 17.478 3.136 26.354-0.078 16.28-3.852 20.918-9.614 25.618 4.818 3.958 10.952 6.196 17.508 5.836 16.47-0.92 27.562-16.15 24.204-31.6z m-54.262-321.958l-43.67-13.97 53.304-30.778-17.846-5.868a6.242 6.242 0 0 0-5.052 0.514l-54.204 31.038c-4.8 2.748-3.918 9.92 1.404 11.426l34.948 9.878c15.05 4.836 21.106 19.806 13.67 34.536a24.69 24.69 0 0 1-8.674 9.634l9.514 3.058c12.292 3.918 26.042-1.18 31.858-12.692 7.432-14.732-0.202-31.94-15.252-36.776z m-60.058 255.944l-9.73-44.796-22.756-12.666c-4.594-2.556-10.096 1.362-9.184 6.538l8.974 50.922c2.158 9.934-1.66 19.766-9.034 25.782 4.816 3.938 10.952 6.176 17.508 5.816 16.486-0.918 27.58-16.146 24.222-31.596z m-53.144-171.022a137.762 137.762 0 0 0-10.432-52.724l7.274-4.198-21.026-6.736-16.714 8.038a6.23 6.23 0 0 0-3.07 7.994c6.3 15.184 14.05 36.116 7.514 64.478a6.242 6.242 0 0 0 3.264 6.984l27.892 14.034a138.232 138.232 0 0 0 5.298-37.87zM608.832 125.806c-9.314-10.252-24.982-11.372-35.636-2.758 1.04 0.82 2.02 1.738 2.938 2.758 9.692 10.672 8.894 27.162-1.78 36.834l-66.948 60.818a6.248 6.248 0 0 0-2.046 4.62v74.39c0 5.418 6.43 8.264 10.44 4.622l22.258-20.216v-61.558l68.992-62.676c10.676-9.674 11.476-26.162 1.782-36.834z m-1.778 168.864c10.672-9.694 11.472-26.182 1.778-36.834-9.314-10.272-24.982-11.392-35.636-2.778 1.04 0.84 2.02 1.758 2.938 2.778 9.692 10.652 8.894 27.142-1.78 36.834l-66.948 60.818a6.248 6.248 0 0 0-2.046 4.62v39.106a6.248 6.248 0 0 0 5.064 6.13c24.214 4.666 42.466 8.888 62.378 24.364a6.256 6.256 0 0 0 8.082-0.304l17.832-16.398c-17.308-13.89-37.994-23.744-60.658-28.06v-27.602z m0 434.66l-68.992-62.676v-9.694a137.862 137.862 0 0 0 65.016-31.738l-10.718-14.86c-2.18-3.024-6.548-3.516-9.264-0.962-19.704 18.534-43.218 23.48-71.768 24.646a6.232 6.232 0 0 0-5.964 6.23v23.614c0 1.76 0.742 3.438 2.046 4.62l66.948 60.818c10.672 9.694 11.472 26.182 1.78 36.834-0.92 1.02-1.9 1.938-2.938 2.778 10.652 8.594 26.322 7.494 35.636-2.778 9.69-10.65 8.89-27.138-1.782-36.832z m0 132.03l-68.992-62.678v-61.558l-22.258-20.216c-4.012-3.644-10.44-0.798-10.44 4.622v74.39c0 1.76 0.742 3.438 2.046 4.62l66.948 60.82c10.672 9.674 11.472 26.162 1.78 36.834-0.92 1.02-1.9 1.938-2.938 2.758 10.652 8.614 26.322 7.494 35.636-2.758 9.69-10.672 8.89-27.162-1.782-36.834zM517.078 15.262c-7.596-0.834-14.888 0.22-21.448 2.778 16.968 6.556 29 23.024 29 42.31 0 14.312-6.638 27.074-17.002 35.39a6.14 6.14 0 0 0-2.266 4.8v69.92c0 5.418 6.43 8.264 10.44 4.622l22.258-20.216v-57.42c12.892-9.088 20.842-24.71 19.004-42.046-2.218-20.926-19.07-37.842-39.986-40.138z m20.984 911.292v-27.72l-22.258-20.216c-4.012-3.644-10.44-0.798-10.44 4.622v40.222c0 1.858 0.816 3.636 2.266 4.8 10.364 8.316 17.002 21.078 17.002 35.39 0 19.286-12.032 35.756-29 42.31a44.938 44.938 0 0 0 16.348 3.058c25.042 0 45.348-20.306 45.348-45.368 0-15.332-7.614-28.884-19.266-37.098z" fill="#C4E2FF" p-id="2242"></path><path d="M453.39 485.794a14.994 14.994 0 0 0-18.934 9.534 81.62 81.62 0 0 0-4.106 25.628c0 45.032 36.636 81.668 81.668 81.668s81.668-36.636 81.668-81.668-36.636-81.668-81.668-81.668c-4.834 0-9.68 0.426-14.406 1.268a14.99 14.99 0 1 0 5.26 29.516 52.236 52.236 0 0 1 9.146-0.804c28.502 0 51.69 23.188 51.69 51.69s-23.188 51.688-51.69 51.688-51.69-23.188-51.69-51.688c0-5.554 0.872-11.014 2.594-16.23a14.986 14.986 0 0 0-9.532-18.934z" p-id="2243"></path><path d="M933.316 685.606a60.44 60.44 0 0 0-47.91-5.404l-14.258-8.232 11.412-3.652a40.808 40.808 0 0 0 23.99-20.312 40.79 40.79 0 0 0 2.6-31.322 40.806 40.806 0 0 0-20.31-23.992 40.81 40.81 0 0 0-31.326-2.602l-82.462 26.398-18.236-10.528 11.412-3.652a40.81 40.81 0 0 0 23.992-20.312 40.796 40.796 0 0 0 2.6-31.324 40.806 40.806 0 0 0-20.31-23.992 40.818 40.818 0 0 0-31.326-2.602l-80.448 25.754a153.356 153.356 0 0 0 2.75-28.876 152.64 152.64 0 0 0-7.044-46.026l2.32-1.338 81.762 26.174c19.43 6.22 40.844-2.462 49.806-20.198 5.48-10.846 5.956-23.436 1.304-34.542a41.028 41.028 0 0 0-25.366-23.262l-11.412-3.652 18.236-10.528 81.762 26.174c19.426 6.22 40.844-2.462 49.806-20.198 5.48-10.846 5.956-23.438 1.304-34.546a41.026 41.026 0 0 0-25.366-23.26l-11.412-3.652 14.258-8.232c15.916 4.884 33.316 3.022 47.908-5.404 28.816-16.636 38.724-53.614 22.088-82.43s-53.616-38.722-82.43-22.088a60.434 60.434 0 0 0-28.634 38.788l-14.258 8.232 2.542-11.708a40.8 40.8 0 0 0-5.594-30.932 40.78 40.78 0 0 0-25.826-17.914 40.808 40.808 0 0 0-30.93 5.594 40.804 40.804 0 0 0-17.916 25.828l-18.37 84.614-18.236 10.53 2.542-11.708c2.328-10.72 0.342-21.706-5.594-30.932s-15.108-15.588-25.828-17.914a40.816 40.816 0 0 0-30.93 5.592 40.808 40.808 0 0 0-17.916 25.828l-18.37 84.614-6.078 3.51c-17.51-15.512-38.118-26.704-60.572-32.9v-9.088l64.094-58.216c8.122-7.376 12.884-17.472 13.41-28.43s-3.246-21.464-10.62-29.582a40.796 40.796 0 0 0-28.43-13.412c-10.978-0.53-21.464 3.246-29.586 10.622l-8.868 8.056v-21.06l64.094-58.214c8.122-7.376 12.884-17.472 13.41-28.43s-3.246-21.464-10.62-29.58a40.79 40.79 0 0 0-28.43-13.414c-10.964-0.518-21.464 3.246-29.586 10.622l-8.868 8.054v-16.464a60.44 60.44 0 0 0 19.274-44.192C572.32 27.07 545.25 0 511.978 0s-60.344 27.07-60.344 60.342a60.432 60.432 0 0 0 19.274 44.192v16.464l-8.868-8.054a41.018 41.018 0 0 0-32.828-10.338c-11.946 1.526-22.612 8.232-29.264 18.402-10.878 16.63-7.692 39.514 7.412 53.232l63.548 57.72v21.058l-8.868-8.054a41.016 41.016 0 0 0-32.828-10.338c-11.944 1.526-22.612 8.232-29.264 18.402-10.878 16.628-7.692 39.514 7.412 53.232l63.548 57.72v9.11c-22.422 6.2-43 17.384-60.488 32.878l-6.078-3.51-18.37-84.614c-2.328-10.722-8.69-19.892-17.916-25.828s-20.212-7.924-30.928-5.594c-10.72 2.326-19.892 8.688-25.828 17.914s-7.922 20.212-5.594 30.932l2.542 11.708-18.234-10.53-18.37-84.614c-2.326-10.72-8.69-19.894-17.916-25.828s-20.206-7.922-30.928-5.594a40.788 40.788 0 0 0-25.828 17.916 40.8 40.8 0 0 0-5.594 30.932l2.542 11.708-14.258-8.232a60.448 60.448 0 0 0-28.634-38.788c-28.814-16.636-65.792-6.726-82.43 22.088-8.06 13.958-10.202 30.22-6.03 45.79 4.172 15.568 14.158 28.582 28.116 36.64a60.432 60.432 0 0 0 47.908 5.404l14.258 8.232-11.41 3.652a41.02 41.02 0 0 0-25.368 23.258c-4.652 11.108-4.176 23.698 1.304 34.546 8.964 17.736 30.376 26.412 49.806 20.198l81.762-26.174 18.236 10.528-11.41 3.652a41.024 41.024 0 0 0-25.366 23.262c-4.652 11.106-4.176 23.698 1.304 34.544 8.962 17.734 30.37 26.414 49.806 20.198l81.762-26.174 2.32 1.338a152.722 152.722 0 0 0-7.044 46.026c0 9.684 0.922 19.352 2.75 28.876l-80.446-25.754c-10.446-3.342-21.572-2.42-31.326 2.602s-16.966 13.542-20.31 23.988a40.796 40.796 0 0 0 2.6 31.328 40.804 40.804 0 0 0 23.992 20.312l11.412 3.652-18.236 10.528-82.468-26.396c-10.446-3.342-21.572-2.42-31.326 2.602s-16.966 13.542-20.31 23.988a40.79 40.79 0 0 0 2.6 31.326 40.8 40.8 0 0 0 23.992 20.312l11.412 3.652-14.258 8.232a60.446 60.446 0 0 0-47.908 5.404c-13.96 8.06-23.944 21.072-28.116 36.64s-2.03 31.83 6.03 45.788c8.058 13.958 21.072 23.944 36.64 28.116 15.572 4.17 31.832 2.032 45.79-6.028a60.436 60.436 0 0 0 28.634-38.786l14.258-8.232-2.542 11.708a41.022 41.022 0 0 0 7.46 33.598c7.294 9.582 18.436 15.466 30.57 16.144 19.83 1.116 38.066-13.096 42.394-33.034l18.214-83.894 18.236-10.528-2.542 11.708a41.022 41.022 0 0 0 7.462 33.598c7.294 9.582 18.434 15.464 30.566 16.142 19.836 1.114 38.066-13.094 42.394-33.034l16.66-76.746a153.234 153.234 0 0 0 60.822 37.848l-56.294 51.13c-15.102 13.718-18.288 36.602-7.41 53.232 6.652 10.168 17.318 16.876 29.262 18.402a41.028 41.028 0 0 0 32.828-10.336l8.868-8.056v21.056l-63.548 57.72c-15.104 13.718-18.29 36.602-7.412 53.232 6.652 10.168 17.318 16.876 29.264 18.402a41.034 41.034 0 0 0 32.826-10.336l8.868-8.054v16.464a60.44 60.44 0 0 0-19.274 44.192c0 33.272 27.07 60.344 60.344 60.344s60.344-27.07 60.344-60.344a60.44 60.44 0 0 0-19.274-44.192v-16.464l8.868 8.054a40.808 40.808 0 0 0 29.586 10.622 40.792 40.792 0 0 0 28.428-13.408c7.376-8.12 11.148-18.626 10.622-29.584s-5.288-21.054-13.41-28.43l-64.094-58.216v-21.056l8.868 8.058c8.12 7.374 18.598 11.142 29.586 10.62a40.782 40.782 0 0 0 28.426-13.408 40.792 40.792 0 0 0 10.622-29.584 40.794 40.794 0 0 0-13.41-28.43l-56.816-51.606a153.192 153.192 0 0 0 60.882-37.868l16.662 76.746c4.328 19.94 22.542 34.152 42.394 33.034 12.132-0.676 23.274-6.558 30.568-16.142a41.024 41.024 0 0 0 7.46-33.598l-2.542-11.71 18.236 10.528 2.716 12.51a14.988 14.988 0 1 0 29.296-6.36l-4.124-18.994a14.98 14.98 0 0 0-7.154-9.8l-53.31-30.778a14.988 14.988 0 0 0-22.144 16.162l9.726 44.806a11.082 11.082 0 0 1-2.02 9.078c-1.158 1.522-3.786 4.11-8.38 4.368-5.28 0.288-10.196-3.774-11.43-9.462l-19.62-90.378a14.984 14.984 0 0 0-7.154-9.802l-11.214-6.474a14.992 14.992 0 0 0-19.36 3.824c-18.51 23.98-44.99 40.286-74.56 45.916a14.988 14.988 0 0 0-12.186 14.726v9.698c0 4.226 1.784 8.256 4.912 11.096l69.006 62.676a11.02 11.02 0 0 1 3.622 7.678 11.02 11.02 0 0 1-2.872 7.99 11.006 11.006 0 0 1-7.674 3.62 11 11 0 0 1-7.99-2.868l-33.936-30.826a14.99 14.99 0 0 0-25.068 11.096v61.558c0 4.226 1.784 8.256 4.912 11.096l69.006 62.676c2.192 1.992 3.48 4.718 3.622 7.676s-0.878 5.794-2.872 7.99a10.996 10.996 0 0 1-7.672 3.618 11.022 11.022 0 0 1-7.99-2.868l-33.936-30.824a14.992 14.992 0 0 0-25.068 11.096v57.426a14.99 14.99 0 0 0 6.358 12.254 30.434 30.434 0 0 1 12.916 24.84c0 16.742-13.622 30.364-30.364 30.364s-30.364-13.622-30.364-30.364c0-9.858 4.828-19.144 12.916-24.84a14.99 14.99 0 0 0 6.358-12.254v-57.426a14.992 14.992 0 0 0-25.068-11.096l-33.938 30.826a11.082 11.082 0 0 1-8.872 2.79c-1.896-0.242-5.454-1.224-7.974-5.076-2.896-4.426-1.83-10.714 2.478-14.628l68.46-62.18a14.988 14.988 0 0 0 4.912-11.096v-61.558a14.992 14.992 0 0 0-25.068-11.096l-33.938 30.826a11.066 11.066 0 0 1-8.872 2.79c-1.896-0.242-5.452-1.222-7.972-5.074-2.896-4.426-1.83-10.716 2.478-14.63l68.46-62.18a14.988 14.988 0 0 0 4.912-11.096v-9.714a14.99 14.99 0 0 0-12.178-14.724c-29.54-5.642-55.992-21.944-74.486-45.902a14.984 14.984 0 0 0-19.36-3.822l-11.214 6.474a14.986 14.986 0 0 0-7.154 9.8l-19.62 90.378c-1.236 5.688-6.15 9.758-11.43 9.462-4.596-0.256-7.224-2.846-8.382-4.368a11.082 11.082 0 0 1-2.02-9.078l9.726-44.804a14.992 14.992 0 0 0-22.144-16.162l-53.31 30.778a14.986 14.986 0 0 0-7.154 9.8l-19.62 90.38c-1.236 5.69-6.176 9.748-11.428 9.462-4.598-0.256-7.226-2.846-8.384-4.368a11.08 11.08 0 0 1-2.02-9.078l9.726-44.804a14.992 14.992 0 0 0-22.144-16.162l-49.732 28.714a14.988 14.988 0 0 0-7.434 11.632 30.432 30.432 0 0 1-15.054 23.606c-14.502 8.372-33.106 3.384-41.478-11.114s-3.386-33.106 11.114-41.478a30.43 30.43 0 0 1 27.968-1.234 14.99 14.99 0 0 0 13.792-0.622L197.206 681a14.99 14.99 0 0 0-2.924-27.256l-43.664-13.976a11.02 11.02 0 0 1-6.48-5.486 11 11 0 0 1-0.7-8.458 11.024 11.024 0 0 1 5.482-6.478 11 11 0 0 1 8.46-0.702l88.782 28.422a14.98 14.98 0 0 0 12.064-1.294l53.308-30.778a14.99 14.99 0 0 0-2.924-27.256l-43.664-13.978a11.018 11.018 0 0 1-6.48-5.484 11.002 11.002 0 0 1-0.7-8.458 11.024 11.024 0 0 1 5.482-6.478 11 11 0 0 1 8.46-0.702l88.782 28.422a14.974 14.974 0 0 0 12.064-1.296l13.762-7.946a14.988 14.988 0 0 0 6.924-17.076 123.7 123.7 0 0 1-4.718-33.782 122.756 122.756 0 0 1 9.29-47.018 14.988 14.988 0 0 0-6.364-18.694l-18.938-10.934a14.992 14.992 0 0 0-12.064-1.294l-88.08 28.198c-5.544 1.778-11.522-0.448-13.908-5.166-2.076-4.108-1.146-7.68-0.408-9.442a11.08 11.08 0 0 1 6.852-6.288l43.664-13.978a14.988 14.988 0 0 0 2.926-27.256l-53.31-30.778a14.992 14.992 0 0 0-12.064-1.294L158.04 405.204c-5.546 1.778-11.524-0.448-13.908-5.166-2.076-4.11-1.146-7.682-0.408-9.444a11.078 11.078 0 0 1 6.854-6.288l43.664-13.978a14.992 14.992 0 0 0 2.926-27.258l-49.734-28.714a14.99 14.99 0 0 0-13.792-0.622 30.428 30.428 0 0 1-27.97-1.234 30.168 30.168 0 0 1-14.148-18.436 30.162 30.162 0 0 1 3.034-23.042c8.372-14.5 26.976-19.484 41.478-11.114a30.436 30.436 0 0 1 15.054 23.606 14.992 14.992 0 0 0 7.434 11.632l49.734 28.712a14.992 14.992 0 0 0 22.144-16.162l-9.726-44.802c-0.63-2.896-0.092-5.864 1.51-8.354s4.078-4.208 6.974-4.836a11.012 11.012 0 0 1 8.352 1.51 11.026 11.026 0 0 1 4.838 6.976l19.778 91.098a14.986 14.986 0 0 0 7.154 9.8l53.308 30.778a14.988 14.988 0 0 0 22.144-16.162l-9.726-44.802a11.018 11.018 0 0 1 1.512-8.354 11.014 11.014 0 0 1 6.974-4.836c2.892-0.63 5.86-0.092 8.352 1.51s4.21 4.08 4.838 6.974l19.776 91.098a14.986 14.986 0 0 0 7.154 9.8l21.544 12.438a14.992 14.992 0 0 0 18.254-2.544c17.79-18.334 40.372-30.542 65.304-35.304a14.988 14.988 0 0 0 12.178-14.724v-27.628a14.988 14.988 0 0 0-4.912-11.096l-68.458-62.18c-4.31-3.914-5.376-10.204-2.48-14.628 2.52-3.852 6.076-4.834 7.974-5.076a11.086 11.086 0 0 1 8.872 2.792l33.936 30.824a14.99 14.99 0 0 0 25.068-11.096v-61.558a14.988 14.988 0 0 0-4.912-11.096l-68.46-62.18c-4.308-3.914-5.374-10.202-2.478-14.628 2.52-3.852 6.076-4.834 7.974-5.076a11.056 11.056 0 0 1 8.872 2.792l33.936 30.824a14.992 14.992 0 0 0 25.068-11.096V97.438a14.99 14.99 0 0 0-6.358-12.254 30.434 30.434 0 0 1-12.916-24.84c0-16.742 13.622-30.362 30.364-30.362s30.364 13.62 30.364 30.362c0 9.858-4.828 19.144-12.916 24.84a14.99 14.99 0 0 0-6.358 12.254v57.426a14.992 14.992 0 0 0 25.068 11.096l33.936-30.824a11.064 11.064 0 0 1 7.99-2.868 11.016 11.016 0 0 1 7.676 3.622c1.99 2.192 3.01 5.028 2.868 7.986s-1.428 5.686-3.622 7.678l-69.006 62.676a14.988 14.988 0 0 0-4.912 11.096v61.558a14.992 14.992 0 0 0 25.068 11.096l33.936-30.824a10.98 10.98 0 0 1 7.99-2.868 11 11 0 0 1 7.674 3.622 11.022 11.022 0 0 1 2.87 7.988 11.014 11.014 0 0 1-3.622 7.676l-69.006 62.676a14.988 14.988 0 0 0-4.912 11.096v27.614a14.99 14.99 0 0 0 12.186 14.726c24.966 4.752 47.574 16.964 65.38 35.316a14.992 14.992 0 0 0 18.254 2.544l21.544-12.438a14.986 14.986 0 0 0 7.154-9.8l19.776-91.1a11.02 11.02 0 0 1 4.838-6.974 11.012 11.012 0 0 1 8.354-1.508c2.894 0.628 5.37 2.344 6.972 4.836s2.14 5.458 1.51 8.354l-9.726 44.804a14.992 14.992 0 0 0 22.144 16.162l53.31-30.778a14.986 14.986 0 0 0 7.154-9.8l19.776-91.098a11.024 11.024 0 0 1 4.838-6.974 11.008 11.008 0 0 1 8.354-1.51 11.014 11.014 0 0 1 6.972 4.836 11.02 11.02 0 0 1 1.512 8.354l-9.726 44.802a14.992 14.992 0 0 0 22.144 16.162l49.734-28.712a14.992 14.992 0 0 0 7.434-11.634 30.432 30.432 0 0 1 15.054-23.606c14.502-8.372 33.108-3.386 41.478 11.114a30.174 30.174 0 0 1 3.034 23.04 30.172 30.172 0 0 1-14.148 18.438 30.424 30.424 0 0 1-27.968 1.234 14.99 14.99 0 0 0-13.792 0.622l-49.732 28.714a14.99 14.99 0 0 0 2.924 27.258l43.666 13.978a11.086 11.086 0 0 1 6.852 6.286c0.738 1.764 1.666 5.336-0.41 9.444-2.386 4.72-8.37 6.94-13.908 5.166l-88.08-28.198a15 15 0 0 0-12.064 1.294l-53.31 30.778a14.99 14.99 0 0 0 2.924 27.256l43.664 13.978a11.084 11.084 0 0 1 6.852 6.288c0.738 1.762 1.666 5.334-0.408 9.442-2.386 4.72-8.366 6.938-13.908 5.168l-88.082-28.198a15 15 0 0 0-12.064 1.294l-18.938 10.934a14.988 14.988 0 0 0-6.364 18.694 122.73 122.73 0 0 1 9.288 47.018 123.72 123.72 0 0 1-4.718 33.782 14.992 14.992 0 0 0 6.924 17.076l13.764 7.946a14.992 14.992 0 0 0 12.064 1.296l88.782-28.422a11.018 11.018 0 0 1 8.46 0.702 11.02 11.02 0 0 1 5.484 6.48c0.904 2.82 0.654 5.822-0.702 8.456s-3.658 4.582-6.48 5.484l-43.664 13.978a14.986 14.986 0 0 0-2.926 27.256l53.31 30.778a14.984 14.984 0 0 0 12.064 1.294l88.782-28.422a11.026 11.026 0 0 1 8.46 0.702 11.02 11.02 0 0 1 5.484 6.48 11.008 11.008 0 0 1-0.702 8.456 11.02 11.02 0 0 1-6.48 5.484l-43.664 13.978a14.988 14.988 0 0 0-2.926 27.256l49.732 28.714a14.984 14.984 0 0 0 13.792 0.622 30.434 30.434 0 0 1 27.97 1.234c14.498 8.372 19.484 26.978 11.114 41.478-8.37 14.498-26.978 19.486-41.478 11.114a30.434 30.434 0 0 1-15.054-23.604 14.992 14.992 0 0 0-7.434-11.634l-49.734-28.714a14.988 14.988 0 0 0-22.144 16.162l9.726 44.804a11.078 11.078 0 0 1-2.02 9.076c-1.158 1.522-3.786 4.112-8.382 4.368-5.28 0.262-10.196-3.774-11.43-9.462l-0.844-3.884a14.982 14.982 0 0 0-17.828-11.468 14.99 14.99 0 0 0-11.468 17.828l0.844 3.884c4.33 19.94 22.56 34.132 42.396 33.034 12.134-0.678 23.276-6.56 30.568-16.144a41.02 41.02 0 0 0 7.46-33.596l-2.542-11.708 14.258 8.232a60.434 60.434 0 0 0 28.634 38.788c13.958 8.058 30.216 10.198 45.79 6.028 15.568-4.172 28.58-14.158 36.64-28.116 16.638-28.822 6.73-65.8-22.084-82.436z" p-id="2244"></path></svg>